<?xml version="1.0" standalone="no"?>
<!DOCTYPE svg PUBLIC "-//W3C//DTD SVG 20010904//EN"
 "http://www.w3.org/TR/2001/REC-SVG-20010904/DTD/svg10.dtd">
<svg version="1.0" xmlns="http://www.w3.org/2000/svg"
 width="640.000000pt" height="640.000000pt" viewBox="0 0 640.000000 640.000000"
 preserveAspectRatio="xMidYMid meet">
<metadata>
Created by potrace 1.11, written by Peter Selinger 2001-2013
</metadata>
<g transform="translate(0.000000,640.000000) scale(0.100000,-0.100000)"
fill="#000000" stroke="none">
<path d="M2503 5925 c-71 -13 -178 -46 -217 -68 -12 -6 -23 -11 -26 -12 -18
-1 -224 -137 -264 -174 -69 -65 -137 -158 -189 -259 -62 -119 -77 -178 -82
-312 -5 -122 -12 -215 -21 -291 -4 -38 1 -58 25 -110 18 -39 30 -56 31 -44 1
11 3 28 5 39 2 10 6 68 9 130 3 61 12 140 20 176 8 36 17 92 21 125 3 33 8 83
11 110 4 28 12 60 20 72 7 11 19 42 25 68 6 25 28 72 49 103 94 143 229 237
357 248 32 2 80 15 108 28 27 13 60 27 72 30 12 4 45 33 74 64 28 31 59 60 68
63 13 5 13 7 -4 16 -14 7 -42 6 -92 -2z"/>
<path d="M2725 5933 c11 -3 40 -20 65 -38 25 -18 56 -38 68 -44 27 -14 130
-27 180 -22 39 3 -50 51 -148 78 -103 28 -125 33 -155 32 -21 -1 -24 -3 -10
-6z"/>
<path d="M3082 5762 c-12 -2 -27 -12 -32 -22 -8 -16 -4 -23 22 -43 18 -14 60
-34 93 -46 33 -13 65 -27 72 -33 27 -22 56 -141 58 -238 4 -142 12 -180 104
-493 22 -77 46 -169 52 -205 6 -37 15 -76 19 -87 5 -11 13 -33 18 -50 l9 -30
25 28 c29 31 84 161 96 228 11 55 3 154 -16 219 -2 8 -5 44 -7 80 -5 103 -46
173 -91 156 -18 -7 -22 29 -10 94 17 89 19 151 5 178 -27 51 -215 212 -285
243 -43 19 -94 28 -132 21z"/>
<path d="M2698 4884 c-2 -1 -16 -5 -31 -8 -46 -8 -113 -53 -125 -83 -22 -57
-40 -223 -23 -223 15 0 31 34 31 68 0 37 38 55 118 56 45 0 58 -4 73 -23 20
-24 84 -34 97 -15 38 56 37 55 71 38 54 -27 178 -9 211 31 12 14 11 21 -5 52
-40 73 -86 91 -245 94 -58 2 -119 6 -137 10 -18 4 -33 5 -35 3z m192 -119 c8
-7 25 -16 37 -19 11 -4 27 -13 33 -21 10 -12 9 -15 -7 -15 -11 0 -33 7 -50 15
-41 21 -121 25 -160 9 -18 -8 -36 -14 -40 -14 -13 1 38 40 52 40 7 0 18 7 25
16 15 18 84 11 110 -11z m-221 -2 c-20 -26 -32 -33 -54 -33 -18 1 -17 3 8 25
34 30 68 35 46 8z"/>
<path d="M2049 4865 c-125 -25 -219 -82 -219 -136 0 -29 160 -102 221 -102 46
1 109 28 109 46 0 10 60 4 95 -8 l20 -7 -20 14 c-31 23 -155 60 -200 61 -22 0
-54 -7 -70 -15 -25 -12 -34 -13 -55 -2 l-24 13 29 11 c38 15 111 24 195 24 60
1 71 -3 140 -46 l75 -46 -2 -46 c-2 -35 1 -46 12 -46 8 0 16 7 16 15 1 8 2 21
3 28 4 30 -58 187 -74 187 -4 0 -13 14 -20 30 -7 17 -18 31 -24 31 -59 7 -153
4 -207 -6z m251 -116 c7 -11 10 -22 8 -25 -8 -7 -48 27 -43 37 10 15 24 10 35
-12z"/>
<path d="M1805 4358 c4 -35 9 -71 11 -80 10 -44 13 -55 23 -78 9 -20 10 -9 6
55 -5 89 -7 98 -23 138 -18 44 -24 32 -17 -35z"/>
<path d="M3273 4333 c-7 -2 -10 -10 -7 -18 3 -7 -1 -29 -10 -47 -23 -48 -75
-202 -70 -207 5 -6 44 30 55 51 17 32 60 211 52 218 -4 4 -13 6 -20 3z"/>
<path d="M2671 4183 c0 -7 -17 -31 -37 -53 -37 -41 -39 -69 -3 -50 25 14 51
66 46 93 -2 12 -5 16 -6 10z"/>
<path d="M2240 4162 c0 -20 53 -64 106 -89 72 -33 122 -35 142 -5 8 12 22 22
31 22 28 1 103 39 96 50 -9 15 -95 7 -105 -10 -9 -15 -66 -18 -112 -5 -22 6
-28 4 -28 -8 0 -8 6 -17 13 -20 6 -2 9 -7 6 -11 -3 -3 -24 11 -47 33 -37 37
-102 64 -102 43z"/>
<path d="M1873 4029 c22 -144 60 -254 154 -447 31 -62 58 -132 60 -155 13
-109 86 -220 175 -264 152 -76 383 -57 602 49 184 90 298 199 340 323 18 51
74 114 105 116 41 3 69 -1 103 -15 53 -23 61 -43 37 -95 -24 -55 -25 -55 12
-164 16 -51 31 -99 31 -107 1 -21 -13 -204 -17 -210 -1 -3 -6 -36 -10 -75 -3
-38 -10 -88 -15 -110 -5 -22 -12 -72 -15 -110 -11 -134 -48 -378 -90 -585 -12
-61 -55 -288 -60 -320 -3 -19 -10 -53 -15 -75 -5 -22 -12 -56 -15 -75 -3 -19
-8 -42 -10 -50 -2 -8 -7 -30 -10 -47 -13 -80 -17 -102 -30 -163 -16 -70 -24
-113 -29 -145 -9 -63 -49 -215 -56 -215 -4 0 -9 53 -10 118 -1 115 -3 139 -14
273 -5 54 -39 255 -60 346 -14 62 -64 238 -118 413 -33 107 -60 213 -61 236
-1 56 31 117 104 197 61 68 111 103 129 92 6 -3 10 -2 10 3 0 13 -151 119
-210 148 -88 42 -226 29 -320 -31 -60 -39 -105 -87 -208 -222 -66 -87 -72
-109 -12 -45 78 83 70 81 146 22 130 -102 160 -143 142 -189 -6 -14 -14 -66
-19 -116 -8 -82 -14 -100 -78 -230 -77 -157 -116 -258 -126 -331 -8 -49 -9
-60 -21 -122 -4 -19 -10 -30 -14 -25 -32 35 -224 743 -265 978 -19 109 -24
145 -29 180 -3 22 -8 51 -10 65 -15 75 -20 313 -11 488 l4 84 -46 -49 c-324
-341 -313 -334 -653 -478 -74 -31 -146 -63 -160 -71 -14 -7 -77 -36 -140 -65
-180 -80 -594 -287 -659 -329 -85 -55 -109 -102 -127 -245 -1 -11 -3 -20 -4
-20 -1 0 -3 -16 -6 -35 -2 -19 -9 -60 -14 -90 -5 -30 -12 -68 -15 -85 -5 -31
-11 -61 -20 -105 -3 -14 -7 -41 -10 -60 -2 -19 -7 -46 -9 -60 -3 -14 -17 -90
-30 -170 -30 -173 -57 -327 -70 -400 -14 -74 -26 -150 -31 -185 -11 -69 -15
-99 -20 -125 -7 -43 -16 -101 -30 -203 -3 -23 -8 -53 -10 -67 -2 -14 -7 -44
-10 -67 l-6 -42 113 -3 c161 -5 6228 -2 6258 3 18 3 24 10 22 24 -9 59 -77
204 -192 410 -51 93 -77 160 -86 230 -22 156 -74 333 -141 477 -40 85 -63 145
-104 278 -25 80 -75 184 -152 315 -44 75 -58 118 -83 255 -36 189 -114 397
-158 418 -36 17 -116 42 -251 78 -149 40 -151 40 -345 94 -80 22 -158 44 -175
49 -16 6 -106 28 -200 51 -93 22 -226 55 -295 71 -270 65 -376 107 -486 190
-89 67 -121 104 -140 164 -27 81 -41 102 -120 179 -70 69 -74 76 -71 110 7 60
-22 45 -119 -61 -49 -53 -107 -115 -129 -138 -50 -52 -117 -102 -111 -84 18
52 49 169 53 195 6 42 -23 56 -37 18 -6 -14 -10 -31 -10 -38 0 -26 -51 -104
-98 -151 -64 -65 -234 -143 -347 -160 -103 -15 -234 3 -345 47 -96 37 -260
221 -260 290 0 30 -96 265 -113 275 -5 3 -7 -10 -4 -28z"/>
<path d="M2083 3863 c-7 -3 -10 -10 -7 -17 3 -7 0 -24 -5 -39 -15 -38 1 -41
62 -12 62 29 67 30 67 11 0 -8 7 -16 14 -19 8 -3 23 -21 32 -39 9 -18 21 -36
27 -39 12 -9 208 -23 266 -20 53 2 92 19 70 31 -22 12 -76 19 -179 26 -59 3
-111 12 -136 23 -57 26 -65 42 -17 35 51 -7 593 -16 593 -9 0 2 -18 16 -41 31
-40 25 -45 25 -182 23 -78 -2 -153 -6 -167 -9 -14 -4 -45 -1 -70 6 -42 12
-302 25 -327 17z"/>
</g>
</svg>
